<?xml version="1.0" encoding="UTF-8" standalone="no"?>
<svg xmlns:rdf="http://www.w3.org/1999/02/22-rdf-syntax-ns#" xmlns="http://www.w3.org/2000/svg" height="63.612mm" width="87.018mm" version="1.1" xmlns:cc="http://creativecommons.org/ns#" xmlns:dc="http://purl.org/dc/elements/1.1/" viewBox="0 0 308.331 225.39813">
 <g transform="translate(-241.74 -547.26)">
  <path d="m231.93 0.14062c-1.48 0.02099-3.06 0.08354-4.85 0.24024-3.22 0.39479-5.49 0.50823-10.04 1.2929-3.44 0.7264-6.47 1.0932-10.53 2.3692-5.7 2.447-9.04 3.6354-13.27 7.896-1.92 2.069-3.83 3.954-4.94 6.616 3.2-1.163 6.19-2.359 9.66-2.358 3.17-0.106 6.59-0.348 9.76 0.022 2.09 0.075 4.92 0.205 7.24 0.685 3.38 0.448 5.58 0.728 9 0.815 4.67 0.322 8.28 0.261 13.84-1.75l5.87-2.52 6.75-3.183c5.11-2.4714 8.77-3.2794 13.77-3.8773-3.35-1.1769-6.33-2.5004-10.07-3.5196l-8.71-1.7265c-2.76-0.33595-2.71-0.73216-9.2-0.99026-1.41-0.01252-2.8-0.0327-4.28-0.01172zm33.55 11.002c-1.77-0.011-3.54 0.156-5.4 0.72-6.75 1.94-10.83 3.528-16.91 6.985l-6.11 2.304c-2.41 0.737-4.62 1.337-7.39 1.45l-9.29-0.215-6.15-0.639c-3.78-0.447-7.52-1.1-11.33-0.684l-6.08 0.684c-1.97 0.32-3.94 0.59-5.88 1.176-1.23 0.384-2.66 0.701-3.9 1.562 0.49 2.304 1.17 4.547 1.93 6.762 0.77 1.793 1.74 3.595 2.72 5.328l4.04 5.34 4.14 4.65c0.94 0.945 1.87 1.358 2.8 2.024 6.85-1.346 12.52-2.029 19.92-1.901 6.52 0.979 11.96 2.197 17.25 5.53 4.44 3.392 6.17 5.301 8.53 10.285l0.68-0.227c3.67-1.301 7.57-1.936 11.4-2.64 4.51-1.287 8.87-2.426 13.02-4.672l6.15-3.258-0.03-2.76c0.13-2.23 0.46-4.33 1.95-6.15 0.95-1.255 1.47-2.335 2.98-3.67 1.99-1.934 3.82-3.423 6.43-4.527 0.01-2.753-0.49-4.734-1.29-7.301-1.15-2.441-2.03-4.831-3.94-6.801-3.77-4.229-8.19-7.547-14.78-9.01-1.89-0.147-3.68-0.335-5.46-0.345zm0.34 6.791c0.76-0.003 1.49 0.094 2.41 0.255 1.83 0.323 2 0.362 3.76 1.307 1.75 0.94 2.05 1.156 3.24 2.221 1.2 1.068 1.89 1.989 2.15 3.279 0.27 1.291 0.39 3.115 0.01 4.029-1.16 2.182-3.26 3.569-5.29 3.745-0.94 0.219-2.13 0.126-3.34 0.189-1.35-0.153-2.86-0.425-4.12-0.973-0.89-0.373-1.81-0.699-2.62-1.334-0.89-0.691-2.13-1.634-2.57-2.447-0.53-0.642-0.83-1.444-1.15-2.51-0.39-2.109 0.14-3.681 1.48-5.484 0.94-0.972 1.4-1.459 3.46-1.936 1.03-0.237 1.82-0.339 2.58-0.341zm-83.01 9.396c-3.47 1.596-6.29 2.57-11.24 4.979-4.73 2.421-9.08 4.73-14.73 8.711-8.54 5.615-17.53 12.276-25.81 20.109l-11.04 10.029-13.69 14.596c-4.1 4.703-7.88 9.603-11.638 14.516-1.983 2.95-4.074 5.86-6.705 8.71-5.133 6.9-10.492 13.97-14.918 21.2-1.428 3.14-3.481 6.02-5.24 9.02-2.717 4.18-5.74 8.39-8.072 12.55-1.93 4.05-3.673 8.27-5.047 12.5l-1.242 5.08 2.951 0.04c1.483 0.25 2.704 0.8 3.882 1.44 2.124 1.72 3.962 3.7 5.807 5.7 1.402 2 2.473 4.09 3.334 6.35 1.582-0.44 3.172-0.79 4.731-1.51 5.037-2.24 8.961-5.19 13.334-7.85 4.739-3.01 9.395-6.21 13.983-9.57 2.7-2.09 6.07-3.38 8.49-5.81-2.37-2.69-2.37-8.69-1.83-12.68 0.18-2.16 1.59-11.52 0.09-12.67-2.13 0.29-3.58 1.76-5.16 3.11l-4.066 2.78c-5.284 3.23-9.181 0.36-9.787-4.52-0.074-3.44 0.111-7.58 1.094-10.17 1.311-3.88 3.481-8.4 6.039-10.74 1.124-1.02 1.89-1.97 3.514-2.85 2.466-0.75 3.456 1.23 2.786 3.11l-2.58 2.62c-1.982 1.48-3.134 3.73-4.357 6.04-1.139 3.3-1.664 6.4-1.763 9.63 0.188 4.44 0.751 4.22 4.3 1.72l3.76-2.58c1.1-0.78 2.01-1.6 3.56-2.26 0.95-0.32 1.87-0.3 2.79-0.32 3.9 0.11 4.51 3.28 5.11 5.52 0.13 1.29 0.05 2.51 0.01 3.74l-0.39 4.29c-0.61 3.04-0.42 6.36-0.32 9.14 0.09 1.73 0.39 2.98 0.64 4.51 2.63-3.51 5.22-5.81 8.18-8.6l4.43-4.48 0.19-1.22c0.44-2.65 0.65-5.18 1.63-8.11 0.76-2.43 1.97-4.97 3.32-7.46 1.71-2.63 3.53-5.3 5.68-7.91l6.36-8.13c3.46-4.45 6.96-8.6 10.6-13.323 1.75-2.992 3.94-6.322 6.54-9.344l5.77-7.445c3.11-3.71 6.13-7.487 8.94-11.413 2.97-3.834 6.24-7.489 10.2-10.525 1.55-1.459 3.58-2.725 5.37-4.086 2.08-1.25 4.16-2.008 6.24-3.012l-4.41-5.269c-1.4-1.781-2.85-3.349-4.19-5.377-0.89-1.165-1.58-2.677-2.29-4.139l-2.19 1.315c-3.02 1.51-6.09 2.809-9 4.787l-8.14 4.814-7.52 5.698-9.9 8.925-6.66 5.7-8.18 7.312-8.39 8.387c-2.04 2.168-3.9 4.407-5.69 6.668-1.28 1.481-2.47 3.01-3.53 4.615-1.99 2.57-3.24 5.085-5.24 7.782-1.5 0.97-2.61 1.22-3.84 0.38-0.89-1.43-0.4-2.36 0.24-3.959l6.41-9.236c2.69-3.586 5.81-6.828 8.78-10.188 3.45-3.492 7.02-6.98 10.78-10.195 2.84-2.422 5.47-5.002 8.33-7.549l7.75-6.814c6.73-6.113 14.13-11.353 21.72-16.024 3.8-2.223 9.78-5.275 12.75-6.699l-1.62-4.086zm110.83 11.395c-0.19 0.009-0.36 0.063-0.52 0.17-1.23 0.653-2.44 1.357-3.57 2.357-0.91 0.788-1.89 1.46-2.55 2.662-0.8 1.201-1.05 2.165-1.18 3.383-0.22 1.457-0.48 2.902-0.15 4.486 0.68 1.291 2.77 1.603 3.99 2.623l1.86 1.369 1.64 1.559 1.71 1.826 1.74 2.113 1.6 2.221 1.22 1.635c1.82 1.954 3.03 2.586 5.9 2.25 2.76-0.932 3.3-3.875 2.58-6.775-0.29-1.868-0.91-3.605-1.52-5.399-0.31-0.999-1.76-4.09-3.51-6.555l-3.38-4.654c-1.08-1.153-1.85-2.308-3.25-3.461l-2.03-1.717c-0.2-0.069-0.4-0.103-0.58-0.093zm-76.64 12.502c-1.58 0.023-3.18 0.103-4.78 0.218-6.38 0.459-12.6 2.723-17.26 5.325-2.76 1.312-8.11 5.751-8.11 5.751-5.98 6.994-11.78 13.352-16.42 20.819l-12.55 15.435-9.42 12.015-10.04 12.39c-2.82 4.36-5.37 7.79-6.62 12.7-0.31 1.32-0.4 2.79-0.6 4.18l3.8-0.53 10.64-1.29c6.27-0.88 12.64-1.77 18.84-2.32 4.29-1.12 6.84-2.06 9.68-5.82 1.69-3.3 2.17-4.44 1.9-8.44-0.08-0.3-1.37-9.96-1.37-9.96-0.64-4.17-0.96-7.73-2.11-11.05-1.43-2.997-1.42-6.915-0.29-10.054 1.93-4.515 3.51-6.846 7.34-10.297 5.32-4.546 11-7.811 18.02-8.061l11.95 0.121c3.99 0.092 8.23 0.668 12.4 1.104 4.16 0.377 7.7 1.803 11.47 2.805 4.31 1.532 9.69 3.654 13.53 7.3l0.46-0.457-0.43-6.586c-0.32-3.217-0.34-6.436-0.97-9.654-1.92-3.26-4.6-5.982-7.57-8.549 0 0-3.98-3.461-8.47-5.15-3.76-1.574-8.29-2.017-13.02-1.945zm-9.45 25.871c-1.04 0.005-2.08 0.021-3.11 0.043l-7.35 0.416c-1.63 0.03-3.38 0.105-5.86 0.773-4.3 1.337-4.91 2.468-8.16 5.01-1.2 1.325-3.12 2.692-4.03 4.357-0.79 1.225-1.51 2.438-1.88 3.602-1.02 2.538-0.97 2.833-0.43 5.476l1.67 6.995 1.02 8.54 1.28 7.93c0.38 3.38 0.12 4.41-0.01 6.19-0.06 1.07-0.56 2.13-0.89 3.2-0.65 1.44-1.2 2.92-2.32 4.19-1.45 1.93-3.02 3.26-5.1 4.36l-6.49 2.48c-5.69 0.22-11.02 0.75-19.05 2.03-5.5 1.37-8.63 1.06-14.3 1.72-2.31 0.6-4.11 1.34-5.97 3.1-1.43 1.34-3.1 2.61-4.31 4.16-0.32 5.54 0.64 10.47 0.64 10.47 0.73 3.71 2.35 6.92 4.05 10.25 1.25 1.93 3.04 3.33 4.56 4.98 0.53-0.66 1.06-1.31 1.89-1.85 2.8-1.72 4.27-1.94 6.34-2.07 1.22-0.01 2.36 0.07 3.33 0.43 4.22 1.75 4.92 4.22 5.76 7.96l2.2-0.17c3.72-0.08 7.39-0.59 11.07-1.03 4.09-0.87 8.04-2.55 11.74-4.39l-0.33-2.1c-0.06-2.26 0.82-3.93 1.88-5.6 1.29-1.27 2.65-2.48 4.3-3.06 2.3-0.78 4.06-0.6 6.36-0.21 1.52 0.43 2.68 1.02 3.69 2.15 1.76-0.54 3.18-1.77 4.68-2.8l6.28-4.87 7.41-6.87 10.88-12.24 6.51-7.96 4.73-6.99 4.36-7.79 4.84-7.91c2.31-4.29 3.85-8.9 5.28-13.531l1.65-7.651-3.97-3.125c-4.13-2.497-8.42-4.094-12.97-5.586-4.26-1.447-7.95-1.936-12.48-2.574-3.07-0.366-6.25-0.451-9.39-0.435zm-26.52 89.872c-1.17-0.03-1.53 0.41-2.14 1.33-0.55 1.75-0.54 4 0.18 5.79 0.03 0.11 1.38 3 1.38 3l1.74 3.05 2.12 3.07 2.58 3.18 2.26 2.41 1.67 1.63 3.12 2.65 3.36 2.25 3.99 2.41 1.14 0.9 1.16 0.78c0.47 0.23 1.03 0.52 1.56 0.59 0.43 0.05 0.92 0.11 1.38 0.03 0.45-0.11 0.84-0.35 1.19-0.64 0.36-0.34 0.7-0.72 0.77-1.25l0.06-1.37c0.02-0.49-0.13-0.98-0.2-1.48-0.06-0.49-0.4-1.06-0.7-1.57-0.33-0.45-0.57-0.81-1.42-1.33l-2.67-1.53-1.85-1.24-2.34-1.48-2.64-1.91-2.15-1.85-2.04-2.15-2.04-2.18-1.99-2.06-1.86-2.56c-0.42-0.72-0.83-1.34-1.25-2.2l-0.68-1.85c-0.17-0.59-0.36-1.23-0.51-1.79-0.13-0.34-0.23-0.67-0.49-1.16-0.56-0.71-0.62-0.76-1.09-1.07-0.36-0.27-0.74-0.44-1.6-0.4zm-39.05 8.12c-0.83-0.07-1.72 0.21-1.82 0.27 0 0-0.49 0.02-1.4 1.43s-2.58 5.54-2.58 5.54l-1.22 4.31-0.68 4.52-0.27 5.25-0.04 4.42c0 1.75 0.56 3.31 0.84 4.97l0.26 1.67 1.11 3.31 1.18 2.77 1.02 2.14s0.84 2.09 0.95 2.24c0.06 0.2 1.23 2.13 1.47 2.28 1.45 1.26 2.06 1.04 3.52 1.04 1.78-0.41 1.91-1.62 2.05-2.79l-0.13-1.84c-0.08-0.5 0.02-0.77-0.57-1.91l-0.86-1.42-1.22-2.21-0.85-1.92c-0.32-0.84-0.19-0.32-0.94-2.6l-0.46-2.1-0.34-2.66-0.14-3.56 0.18-3.73 0.29-3.73c0.17-1.92 0.36-3.22 0.66-4.83l0.57-2.7 0.76-2.62 0.61-1.9c0.11-0.47 0.08-1-0.04-1.56-0.15-0.83-0.44-1.37-1.14-1.88-0.23-0.12-0.49-0.18-0.77-0.2zm-89.585 0.91c0.322 2.46 0.859 3.61 0.859 3.61s0.457 1.06 0.928 1.54c0.47 0.48 0.927 0.95 1.464 1.36 0.538 0.4 1.197 0.82 1.889 1.27 0.726 0.47 1.94 1.02 2.723 1.15 0.785 0.13 1.049 0.21 2.205 0.25s1.33 0.06 1.33 0.06-0.213-1.03-0.307-1.62c-0.094-0.6-0.755-2.44-1.4-3.64s-1.641-1.97-1.641-1.97-0.257-0.23-0.629-0.44c-0.371-0.2-0.855-0.39-1.037-0.45-0.363-0.14-1.195-0.33-1.908-0.46-0.712-0.13-2.648-0.42-4.476-0.66zm-6.438 0.26s-0.347-0.07-3.541 0.62c-3.195 0.68-7.513 2.65-9.533 3.51-2.158 0.92-9.831 5.09-9.738 5.24-3.065 2.17-5.854 4.53-8.743 7.08-2.835 2.54-5.4101 5-7.904 8.18 0.0181-0.01-1.173 1.23-2.4101 3.55-1.1028 2.06-2.434 4.9-3.3887 8.01-0.92494 3.01-0.49249 4.74-0.28318 5.88 0.20794 1.13 0.70068 2.36 1.8574 3.8 0.7976 1.05 1.9065 1.89 3.2364 2.4 1.5907 0.64 3.2271 0.75 5.0352 0.74 0.668-0.05 1.129-0.12 1.555-0.18 1.39-0.23 1.949-0.41 2.88-1.79l1.217-1.7 2.674-3.96 4.865-6.34 4.598-4.84c1.747-1.61 3.481-3.25 5.271-4.77 1.516-1.04 2.988-2.08 4.682-3.01 2.274-1.4 4.775-2.03 7.049-2.86l6.064-1.19 4.434-0.9c1.603-0.36 2.713-0.98 3.818-1.54l2.393-1.48-0.43-0.11c-1.504-0.15-2.84-0.05-4.31-0.48-0.638-0.21-3.447-1.36-5.082-3.02-1.873-1.91-3.356-3.83-3.356-3.83-0.124-0.2-1.977-3.31-2.347-4.3-0.336-0.9-0.561-2.71-0.563-2.71z" fill-rule="evenodd" transform="translate(241.74 547.26)" stroke="#fff" stroke-width=".26296px" fill="#fff"/>
 </g>
</svg>
